# xmcd CD database file
#
# Track frame offsets:
#	150
#	11159
#	22648
#	33444
#	45188
#	56547
#	70000
#	81203
#	92547
#	106160
#	117592
#	128789
#	139748
#	150916
#	161696
#	173388
#
# Disc length: 2469 seconds
#
# Revision: 2
# Processed by: cddbd v1.5.1PL2 Copyright (c) Steve Scherf et al.
# Submitted via: CDex 1.51
#
DISCID=b309a310
DTITLE=David Thekwane and Whitehouse - Legends of Africa Disc 2
DYEAR=2002
DGENRE=Jazz
TTITLE0=Warm Yster
TTITLE1=Malombo Jive
TTITLE2=Hot Pap
TTITLE3=Lunch Time
TTITLE4=Skeleton Beat
TTITLE5=Thoms Special
TTITLE6=Dube Station No 4
TTITLE7=Drive 50 Miles
TTITLE8=Vusumuzi Jive
TTITLE9=50 K.M.
TTITLE10=Boyoyo 500
TTITLE11=Boyoyo No 5
TTITLE12=Bottom 600
TTITLE13=Soweto T.Z.
TTITLE14=Mama Yoyo No 1000
TTITLE15=Eloff Street 500
EXTD=YEAR: 2002
EXTT0=
EXTT1=
EXTT2=
EXTT3=
EXTT4=
EXTT5=
EXTT6=
EXTT7=
EXTT8=
EXTT9=
EXTT10=
EXTT11=
EXTT12=
EXTT13=
EXTT14=
EXTT15=
PLAYORDER=
